<?xml version="1.0" encoding="UTF-8"?>
<svg xmlns="http://www.w3.org/2000/svg" xmlns:xlink="http://www.w3.org/1999/xlink" width="250pt" height="250pt" viewBox="0 0 250 250" version="1.1">
<g id="surface10735680">
<path style=" stroke:none;fill-rule:nonzero;fill:rgb(100%,100%,100%);fill-opacity:1;" d="M 160 55 L 185 55 C 187.761719 55 190 52.761719 190 50 L 190 16.316406 C 190 13.695312 187.984375 11.515625 185.375 11.328125 C 177.421875 10.765625 161.878906 10 150.703125 10 C 120 10 100 28.398438 100 61.839844 L 100 95 L 65 95 C 62.238281 95 60 97.238281 60 100 L 60 135 C 60 137.761719 62.238281 140 65 140 L 100 140 L 100 235 C 100 237.761719 102.238281 240 105 240 L 140 240 C 142.761719 240 145 237.761719 145 235 L 145 140 L 181.109375 140 C 183.660156 140 185.800781 138.085938 186.078125 135.550781 L 189.96875 100.550781 C 190.300781 97.589844 187.980469 95 185 95 L 145 95 L 145 70 C 145 61.714844 151.714844 55 160 55 Z M 160 55 "/>
</g>
</svg>
