<?xml version="1.0" encoding="UTF-8"?>
<svg xmlns="http://www.w3.org/2000/svg" xmlns:xlink="http://www.w3.org/1999/xlink" width="144pt" height="144pt" viewBox="0 0 144 144" version="1.1">
<g id="surface10741151">
<path style=" stroke:none;fill-rule:nonzero;fill:rgb(100%,100%,100%);fill-opacity:1;" d="M 31.5 24 C 20.785156 24 12 32.785156 12 43.5 L 12 100.5 C 12 111.214844 20.785156 120 31.5 120 L 112.5 120 C 123.214844 120 132 111.214844 132 100.5 L 132 43.5 C 132 32.785156 123.214844 24 112.5 24 Z M 34.417969 33 L 109.582031 33 L 72 53.3125 Z M 23.160156 37.140625 L 69.859375 62.382812 C 71.195312 63.105469 72.804688 63.105469 74.136719 62.382812 L 120.835938 37.140625 C 122.175781 38.90625 123 41.085938 123 43.5 L 123 100.5 C 123 105.835938 119.121094 110.132812 114 110.851562 L 114 59.226562 C 114 57.640625 113.164062 56.175781 111.804688 55.363281 C 110.441406 54.554688 108.753906 54.519531 107.359375 55.269531 L 72 74.382812 L 36.640625 55.269531 C 35.976562 54.914062 35.234375 54.726562 34.484375 54.726562 C 32.003906 54.738281 30 56.75 30 59.226562 L 30 110.851562 C 24.878906 110.132812 21 105.835938 21 100.5 L 21 43.5 C 21 41.085938 21.824219 38.90625 23.160156 37.140625 Z M 39 66.777344 L 69.859375 83.460938 C 71.195312 84.183594 72.804688 84.183594 74.136719 83.460938 L 105 66.777344 L 105 111 L 39 111 Z M 39 66.777344 "/>
</g>
</svg>
