<?xml version="1.0" encoding="UTF-8"?>
<svg xmlns="http://www.w3.org/2000/svg" xmlns:xlink="http://www.w3.org/1999/xlink" width="144pt" height="144pt" viewBox="0 0 144 144" version="1.1">
<g id="surface10742703">
<path style=" stroke:none;fill-rule:nonzero;fill:rgb(100%,100%,100%);fill-opacity:1;" d="M 80.945312 12 C 78.835938 12.023438 77.027344 13.511719 76.59375 15.578125 L 69.804688 48.167969 C 55.519531 48.574219 42.675781 52.8125 32.867188 59.699219 C 30.222656 58.148438 27.300781 57 24 57 C 14.113281 57 6 65.113281 6 75 C 6 81.601562 9.714844 87.207031 15.046875 90.324219 C 15.171875 102.246094 21.976562 112.835938 32.261719 120.179688 C 42.644531 127.597656 56.632812 132 72 132 C 87.367188 132 101.355469 127.597656 111.738281 120.179688 C 122.023438 112.835938 128.828125 102.246094 128.953125 90.324219 C 134.285156 87.207031 138 81.601562 138 75 C 138 65.113281 129.886719 57 120 57 C 116.699219 57 113.777344 58.148438 111.132812 59.699219 C 102.429688 53.585938 91.316406 49.644531 78.925781 48.53125 L 84.503906 21.75 L 102.382812 25.152344 C 103.566406 29.65625 107.632812 33 112.5 33 C 118.289062 33 123 28.289062 123 22.5 C 123 16.710938 118.289062 12 112.5 12 C 109.03125 12 105.96875 13.710938 104.058594 16.3125 L 81.84375 12.082031 C 81.546875 12.023438 81.25 11.996094 80.949219 12 Z M 72 57 C 86.582031 57 99.542969 61.597656 108.222656 68.5 C 109.941406 69.871094 112.394531 69.796875 114.027344 68.332031 C 115.664062 66.867188 117.703125 66 120 66 C 125.023438 66 129 69.976562 129 75 C 129 78.980469 126.445312 82.25 122.882812 83.464844 C 120.925781 84.136719 119.675781 86.050781 119.851562 88.113281 C 119.929688 88.988281 120 89.605469 120 90 C 120 98.652344 115.125 106.699219 106.503906 112.855469 C 97.886719 119.015625 85.628906 123 72 123 C 58.371094 123 46.113281 119.015625 37.496094 112.855469 C 28.875 106.699219 24 98.652344 24 90 C 24 89.605469 24.070312 88.988281 24.148438 88.113281 C 24.324219 86.050781 23.074219 84.136719 21.117188 83.464844 C 17.554688 82.25 15 78.980469 15 75 C 15 69.976562 18.976562 66 24 66 C 26.296875 66 28.335938 66.867188 29.972656 68.332031 C 31.605469 69.796875 34.058594 69.871094 35.777344 68.5 C 44.457031 61.597656 57.417969 57 72 57 Z M 49.5 69 C 45.375 69 41.710938 70.707031 39.386719 73.324219 C 37.0625 75.941406 36 79.25 36 82.5 C 36 85.75 37.0625 89.058594 39.386719 91.675781 C 41.710938 94.292969 45.375 96 49.5 96 C 53.625 96 57.289062 94.292969 59.613281 91.675781 C 61.9375 89.058594 63 85.75 63 82.5 C 63 79.25 61.9375 75.941406 59.613281 73.324219 C 57.289062 70.707031 53.625 69 49.5 69 Z M 94.5 69 C 90.375 69 86.710938 70.707031 84.386719 73.324219 C 82.0625 75.941406 81 79.25 81 82.5 C 81 85.75 82.0625 89.058594 84.386719 91.675781 C 86.710938 94.292969 90.375 96 94.5 96 C 98.625 96 102.289062 94.292969 104.613281 91.675781 C 106.9375 89.058594 108 85.75 108 82.5 C 108 79.25 106.9375 75.941406 104.613281 73.324219 C 102.289062 70.707031 98.625 69 94.5 69 Z M 49.5 78 C 51.375 78 52.210938 78.542969 52.886719 79.300781 C 53.5625 80.058594 54 81.25 54 82.5 C 54 83.75 53.5625 84.941406 52.886719 85.699219 C 52.210938 86.457031 51.375 87 49.5 87 C 47.625 87 46.789062 86.457031 46.113281 85.699219 C 45.4375 84.941406 45 83.75 45 82.5 C 45 81.25 45.4375 80.058594 46.113281 79.300781 C 46.789062 78.542969 47.625 78 49.5 78 Z M 94.5 78 C 96.375 78 97.210938 78.542969 97.886719 79.300781 C 98.5625 80.058594 99 81.25 99 82.5 C 99 83.75 98.5625 84.941406 97.886719 85.699219 C 97.210938 86.457031 96.375 87 94.5 87 C 92.625 87 91.789062 86.457031 91.113281 85.699219 C 90.4375 84.941406 90 83.75 90 82.5 C 90 81.25 90.4375 80.058594 91.113281 79.300781 C 91.789062 78.542969 92.625 78 94.5 78 Z M 91.460938 101.9375 C 90.269531 101.964844 89.140625 102.460938 88.320312 103.316406 C 88.320312 103.316406 87.53125 104.1875 84.898438 105.425781 C 82.261719 106.667969 78.082031 107.992188 72 107.992188 C 65.917969 107.992188 61.738281 106.667969 59.105469 105.425781 C 56.46875 104.1875 55.683594 103.316406 55.683594 103.316406 C 54.835938 102.445312 53.667969 101.953125 52.453125 101.953125 C 50.621094 101.953125 48.972656 103.0625 48.285156 104.761719 C 47.59375 106.460938 48.003906 108.40625 49.320312 109.679688 C 49.320312 109.679688 51.53125 111.8125 55.273438 113.570312 C 59.011719 115.332031 64.582031 116.992188 72 116.992188 C 79.417969 116.992188 84.988281 115.332031 88.730469 113.570312 C 92.46875 111.8125 94.683594 109.679688 94.683594 109.679688 C 96.019531 108.394531 96.433594 106.421875 95.71875 104.707031 C 95.007812 102.992188 93.316406 101.890625 91.460938 101.933594 Z M 91.460938 101.9375 "/>
</g>
</svg>
